<?xml version="1.0" encoding="utf-8"?>
<!-- Generator: Adobe Illustrator 19.0.0, SVG Export Plug-In . SVG Version: 6.00 Build 0)  -->
<svg version="1.1" id="Capa_1" xmlns="http://www.w3.org/2000/svg" xmlns:xlink="http://www.w3.org/1999/xlink" x="0px" y="0px"
	 viewBox="0 0 402.6 63.4" style="enable-background:new 0 0 402.6 63.4;" xml:space="preserve">
<style type="text/css">
	.st0{fill:#8696A2;}
	.st1{fill:#D075A8;}
	.st2{fill:#7DC6C3;}
</style>
<path id="XMLID_3_" class="st0" d="M14.8,0c2,0,3.9,0.3,5.6,0.8c1.7,0.5,3.3,1.1,4.9,1.8c1.6,0.6,3.2,1.2,4.7,1.8
	c1.6,0.6,3.2,0.8,4.9,0.8L42.3,31l6.6-25.8h16.4v1.4c-0.5,0.2-0.9,0.5-1.4,0.9c-0.3,0.4-0.6,0.9-0.9,1.6c-0.3,0.7-0.4,1.6-0.5,2.7
	l1.8,32.1c0,1.1,0.2,2,0.5,2.6c0.3,0.6,0.6,1.2,0.9,1.5c0.4,0.4,0.9,0.7,1.4,0.9v1.4H50.7V49c0.5-0.2,1-0.5,1.4-0.9
	c0.4-0.4,0.7-0.9,1-1.5c0.3-0.6,0.4-1.5,0.4-2.6l-1.7-29.4l-9.3,35.9h-5.1L26.8,13.7l-1.7,30.2c0,1.1,0.2,2,0.5,2.6
	c0.3,0.6,0.6,1.2,0.9,1.5c0.4,0.4,0.9,0.7,1.4,0.9v1.4H16.6V49c0.5-0.2,1-0.5,1.4-0.9c0.4-0.4,0.7-0.9,1-1.5
	c0.3-0.6,0.4-1.5,0.4-2.6l1.8-34.3c0-0.8-0.1-1.6-0.4-2.5c-0.2-0.8-0.6-1.6-1.1-2.3c-0.5-0.7-1.1-1.2-1.9-1.6
	C17,2.8,16,2.6,14.9,2.6c-1,0-1.8,0.2-2.6,0.6c-0.7,0.4-1.4,1-1.9,1.7C9.9,5.6,9.5,6.4,9.2,7.3c-0.3,0.9-0.4,1.8-0.4,2.8
	c0,1.4,0.2,2.6,0.7,3.4c0.5,0.8,1,1.6,1.5,2.2c0.6,0.6,1.1,1.3,1.5,1.9c0.5,0.6,0.7,1.4,0.7,2.3c0,1-0.3,1.7-0.9,2.2
	C11.8,22.7,11,23,10.1,23c-2.4,0-4.5-0.6-6-1.7c-1.6-1.1-2.7-2.5-3.3-4.2c-0.6-1.7-0.8-3.6-0.6-5.5c0.3-2,1-3.8,2.2-5.5
	c1.2-1.7,2.8-3.1,4.9-4.2C9.3,0.6,11.8,0,14.8,0z"/>
<path id="XMLID_5_" class="st0" d="M104,48.1c-0.2,0.4-0.5,0.7-0.9,1.1c-0.3,0.2-0.8,0.5-1.4,0.7c-0.6,0.2-1.3,0.4-2.2,0.4
	c-1.9,0-3.7-0.3-5.5-1c-1.7-0.7-3.1-1.8-4-3.2c-0.3,0.4-0.8,0.9-1.4,1.5c-0.6,0.6-1.3,1.1-2.2,1.5c-0.9,0.5-1.9,0.8-3.1,1.2
	c-1.2,0.3-2.5,0.5-4.1,0.5c-1.8,0-3.4-0.3-4.8-0.8c-1.3-0.5-2.5-1.2-3.3-2c-0.9-0.8-1.5-1.8-2-2.9c-0.4-1.1-0.6-2.3-0.6-3.5
	c0-2,0.5-3.6,1.5-4.8c1-1.2,2.2-2.2,3.7-3c1.5-0.7,3.1-1.3,4.8-1.7c1.7-0.4,3.3-0.8,4.9-1c1.5-0.3,2.8-0.6,3.8-0.9
	c1-0.3,1.5-0.8,1.5-1.4v-0.1c0-0.9-0.1-1.8-0.2-2.7c-0.1-0.9-0.3-1.6-0.6-2.3c-0.3-0.7-0.7-1.3-1.2-1.7c-0.5-0.4-1.2-0.6-2-0.6
	c-0.9,0-1.5,0.2-1.9,0.7c-0.4,0.5-0.8,1-1,1.7c-0.2,0.6-0.4,1.4-0.6,2.2c-0.2,0.8-0.4,1.5-0.6,2.2c-0.3,0.6-0.6,1.2-1.2,1.7
	c-0.5,0.5-1.2,0.7-2.2,0.7c-1,0-1.9-0.3-2.7-0.8c-0.8-0.6-1.4-1.2-1.8-2.1c-0.4-0.8-0.5-1.7-0.3-2.7c0.2-1,0.8-1.9,1.8-2.7
	c1-0.8,2.4-1.5,4.3-2.1c1.9-0.6,4.3-0.8,7.3-0.8c2.2,0,4.2,0.3,5.9,0.8c1.7,0.6,3.2,1.3,4.4,2.2c1.2,0.9,2.1,2,2.7,3.2
	c0.6,1.2,0.9,2.4,0.9,3.6v15c0,1.4,0.1,2.4,0.4,3c0.3,0.6,0.7,0.8,1.2,0.8c0.5,0,0.9-0.1,1.3-0.4c0.2-0.1,0.3-0.2,0.4-0.4L104,48.1z
	 M88.8,32.5c-0.6,0.9-1.5,1.6-2.7,2.1c-1.5,0.6-2.8,1.6-3.7,2.9c-0.9,1.3-1.5,2.6-1.7,3.9c-0.2,1.3-0.1,2.4,0.4,3.3
	c0.5,1,1.3,1.4,2.5,1.4c0.9,0,1.6-0.2,2.3-0.7c0.6-0.5,1.2-1,1.6-1.7c0.5-0.7,0.9-1.4,1.3-2.3L88.8,32.5z"/>
<path id="XMLID_8_" class="st0" d="M103.1,54.9c0.9,0,1.6,0.1,2.1,0.3c0.5,0.2,1,0.4,1.3,0.6c0.4,0.2,0.7,0.4,1,0.6
	c0.3,0.2,0.7,0.3,1.2,0.3c0.4,0,0.8-0.3,1.3-0.8c0.5-0.6,1.1-1.3,1.7-2.2c0.6-0.9,1.2-1.9,1.9-3.1c0.7-1.2,1.3-2.4,1.9-3.6
	l-11.7-22.9c-0.6-0.9-1.3-1.8-2.2-2.6c-0.9-0.8-1.9-1.2-3.1-1.2v-1.4h18.1v1.4c-0.7,0.1-1.2,0.4-1.6,0.9c-0.3,0.4-0.5,0.9-0.6,1.5
	c-0.1,0.6,0.2,1.5,0.7,2.7l5.4,11.3l5.8-11.7c0.5-1.1,0.7-2,0.4-2.6c-0.2-0.6-0.6-1.1-1.2-1.4c-0.6-0.3-1.3-0.6-2.2-0.7v-1.4h13.5
	v1.4c-0.8,0-1.6,0.1-2.4,0.4c-0.6,0.2-1.3,0.6-1.9,1.1c-0.7,0.5-1.2,1.2-1.6,2.2l-12.4,26.2c-1.2,2.5-2.5,4.7-3.9,6.6
	c-0.8,1.1-1.7,2.2-2.7,3.2c-1,1-2.1,1.9-3.2,2.5c-1.1,0.6-2.3,0.9-3.6,0.9c-2.4,0-4.1-0.4-5.2-1.3c-1.1-0.9-1.6-1.9-1.7-2.9
	c0-1.1,0.4-2,1.2-2.9C100.6,55.4,101.7,54.9,103.1,54.9z"/>
<path id="XMLID_10_" class="st0" d="M159.1,47c-0.4,0.6-1,1.2-1.6,1.6c-0.5,0.4-1.2,0.8-2,1.2c-0.8,0.3-1.7,0.5-2.8,0.5
	c-1.3,0-2.6-0.2-3.9-0.5c-1.2-0.3-2.3-0.9-3.2-1.5c-0.9-0.7-1.7-1.6-2.2-2.7c-0.6-1.1-0.9-2.3-0.9-3.8V22.2h-4.8v-3.3h1.3
	c2.2,0,4.1-0.7,5.7-2c1.6-1.3,3-2.8,4.1-4.4c1.3-1.8,2.4-3.9,3.4-6.3h1.3v12.6h4.8v3.3h-4.8v21.6c0,1.2,0.2,2.1,0.7,2.6
	c0.5,0.5,1,0.7,1.5,0.7c0.4,0,0.7-0.1,1-0.2s0.5-0.3,0.7-0.4c0.2-0.2,0.5-0.4,0.6-0.6L159.1,47z"/>
<path id="XMLID_12_" class="st0" d="M191.9,41.5c-0.9,1.7-2,3.2-3.5,4.5c-1.2,1.1-2.9,2.1-4.9,3.1c-2,1-4.5,1.4-7.6,1.4
	c-3.6,0-6.5-0.8-8.9-2.3c-2.4-1.6-4.2-3.5-5.4-5.9c-1.2-2.4-1.8-4.9-1.8-7.7c0-2.8,0.6-5.3,1.9-7.7c1.3-2.4,3.2-4.3,5.8-5.9
	c2.6-1.6,5.9-2.3,9.9-2.3c1.9,0,3.6,0.2,5.2,0.6c1.6,0.4,3,0.9,4.1,1.6c1.2,0.7,2,1.5,2.7,2.5c0.6,1,0.9,2.1,0.9,3.3
	c0,1.6-0.6,3-1.8,4.4c-1.2,1.3-2.7,2.5-4.4,3.6c-1.8,1.1-3.7,1.9-5.8,2.7c-2.1,0.7-4.1,1.2-6,1.6c0.6,1.4,1.4,2.5,2.5,3.4
	c1.1,0.9,2.5,1.3,4.2,1.3c1.7,0,3.3-0.2,4.7-0.5c1.4-0.4,2.6-0.8,3.6-1.2c1.1-0.5,2.1-1.1,3-1.7L191.9,41.5z M178.6,22.8
	c-1.3,0-2.5,0.4-3.5,1.3c-1,0.8-1.8,1.9-2.4,3.2c-0.6,1.3-1,2.8-1.2,4.4s-0.2,3.1,0,4.7c1.9-0.7,3.6-1.8,5-3.3
	c1.5-1.5,2.6-3,3.3-4.5c0.7-1.5,1-2.8,0.9-4C180.7,23.3,179.9,22.8,178.6,22.8z"/>
<path id="XMLID_15_" class="st0" d="M230.2,0c3.7,0,6.9,0.4,9.5,1.3s4.8,2,6.4,3.4c1.7,1.4,2.9,3,3.7,4.8c0.8,1.8,1.1,3.6,1.1,5.4
	c0,1.8-0.5,3.6-1.3,5.4c-0.8,1.8-1.9,3.3-3.3,4.6c2.3,0.5,4.2,1.5,5.7,3c1.5,1.5,2.5,3.2,3.2,5.1c0.6,1.9,0.9,3.9,0.7,6
	c-0.2,2.1-0.8,4-1.9,5.8c-1.1,1.7-2.5,3.2-4.5,4.3c-1.9,1.2-4.3,1.7-7.1,1.7c-1.7,0-3.2-0.1-4.4-0.4c-1.2-0.3-2.2-0.7-3.1-1.2v1.2
	h-13.7V49c0.5-0.2,0.9-0.5,1.4-0.9c0.3-0.4,0.6-0.9,0.9-1.5s0.4-1.5,0.4-2.6V12.7c0-1.2-0.4-2.2-1.1-2.8c-0.7-0.6-1.5-0.9-2.4-0.9
	V7.8c2.7,0,5.4-0.1,8.2-0.4c2.8-0.2,5.4-1,7.9-2.2l0.8,1.3c-0.5,0.2-0.9,0.6-1.2,1.1c-0.3,0.4-0.6,0.9-0.8,1.6
	c-0.3,0.7-0.4,1.5-0.4,2.6v14.5c1.3,0,2.4-0.6,3.5-1.8c1-1.2,1.8-2.6,2.4-4.4c0.6-1.8,0.9-3.6,0.9-5.7c0-2-0.4-3.9-1.1-5.7
	c-0.7-1.8-1.9-3.2-3.6-4.4c-1.7-1.2-3.9-1.8-6.6-1.8c-3.1,0-5.6,0.5-7.5,1.5c-1.8,1-3.3,2.2-4.2,3.6c-1,1.4-1.6,2.8-1.9,4.3
	c-0.3,1.5-0.5,2.7-0.5,3.7c0,1.4,0.2,2.6,0.7,3.4c0.5,0.8,1,1.6,1.5,2.2c0.6,0.6,1.1,1.3,1.5,1.9c0.5,0.6,0.7,1.4,0.7,2.3
	c0,1-0.3,1.7-0.8,2.2c-0.6,0.5-1.3,0.8-2.3,0.8c-2.3,0-4.2-0.7-5.7-2.1c-1.5-1.4-2.4-3.2-2.9-5.3c-0.5-2.1-0.4-4.4,0.1-6.8
	c0.6-2.4,1.7-4.7,3.4-6.8c1.7-2.1,4.1-3.9,7-5.3C222.3,0.7,225.9,0,230.2,0z M234.8,37.2c0,0.8,0.1,1.8,0.3,2.9
	c0.1,1.1,0.3,2.2,0.7,3.2c0.3,1,0.8,1.9,1.4,2.6c0.6,0.7,1.3,1,2.2,1c1.1,0,2-0.4,2.8-1.3c0.7-0.9,1.3-2,1.7-3.3
	c0.4-1.3,0.6-2.8,0.6-4.3c0-1.6-0.2-3-0.5-4.3c-0.3-1.3-0.9-2.4-1.6-3.3c-0.7-0.9-1.6-1.3-2.7-1.3c-1,0-1.8,0.3-2.4,1
	c-0.6,0.7-1.1,1.4-1.4,2.3c-0.4,0.8-0.6,1.7-0.8,2.5c-0.1,0.8-0.2,1.4-0.2,1.7V37.2z"/>
<path id="XMLID_18_" class="st0" d="M270.4,43.6c0,1.1,0.2,1.9,0.5,2.6c0.3,0.7,0.6,1.2,1,1.6c0.3,0.4,0.8,0.7,1.3,0.9v1.4h-16.4
	v-1.4c0.5-0.2,1-0.5,1.4-0.9c0.4-0.4,0.7-0.9,1-1.5c0.3-0.6,0.4-1.5,0.4-2.6V12.5c0-1.2-0.4-2.2-1.1-2.8c-0.7-0.6-1.5-0.9-2.3-0.9
	V7.6c2.7,0,5.4-0.1,8.2-0.4c2.8-0.2,5.4-1,7.9-2.2l0.7,1.3c-0.5,0.2-0.9,0.6-1.2,1.1c-0.3,0.4-0.6,0.9-0.8,1.6
	c-0.3,0.7-0.4,1.5-0.4,2.6V43.6z"/>
<path id="XMLID_20_" class="st0" d="M309.3,48.1c-0.2,0.4-0.5,0.7-0.9,1.1c-0.3,0.2-0.8,0.5-1.4,0.7c-0.6,0.2-1.3,0.4-2.2,0.4
	c-1.9,0-3.7-0.3-5.5-1c-1.7-0.7-3.1-1.8-4-3.2c-0.3,0.4-0.8,0.9-1.4,1.5c-0.6,0.6-1.3,1.1-2.2,1.5c-0.9,0.5-1.9,0.8-3.1,1.2
	c-1.2,0.3-2.5,0.5-4.1,0.5c-1.8,0-3.4-0.3-4.8-0.8s-2.5-1.2-3.3-2c-0.9-0.8-1.5-1.8-2-2.9c-0.4-1.1-0.6-2.3-0.6-3.5
	c0-2,0.5-3.6,1.5-4.8c1-1.2,2.2-2.2,3.7-3c1.5-0.7,3.1-1.3,4.8-1.7c1.7-0.4,3.3-0.8,4.9-1c1.5-0.3,2.8-0.6,3.8-0.9
	c1-0.3,1.5-0.8,1.5-1.4v-0.1c0-0.9-0.1-1.8-0.2-2.7c-0.1-0.9-0.3-1.6-0.6-2.3c-0.3-0.7-0.7-1.3-1.2-1.7c-0.5-0.4-1.2-0.6-2-0.6
	c-0.9,0-1.5,0.2-1.9,0.7c-0.4,0.5-0.8,1-1,1.7s-0.4,1.4-0.6,2.2c-0.2,0.8-0.4,1.5-0.6,2.2c-0.3,0.6-0.6,1.2-1.2,1.7
	c-0.5,0.5-1.2,0.7-2.2,0.7c-1,0-1.9-0.3-2.7-0.8c-0.8-0.6-1.4-1.2-1.8-2.1c-0.4-0.8-0.5-1.7-0.3-2.7c0.2-1,0.8-1.9,1.8-2.7
	c1-0.8,2.4-1.5,4.3-2.1c1.9-0.6,4.3-0.8,7.3-0.8c2.2,0,4.2,0.3,5.9,0.8c1.7,0.6,3.2,1.3,4.4,2.2c1.2,0.9,2.1,2,2.7,3.2
	c0.6,1.2,0.9,2.4,0.9,3.6v15c0,1.4,0.1,2.4,0.4,3c0.3,0.6,0.7,0.8,1.2,0.8c0.5,0,0.9-0.1,1.3-0.4c0.2-0.1,0.3-0.2,0.4-0.4
	L309.3,48.1z M294.1,32.5c-0.6,0.9-1.5,1.6-2.7,2.1c-1.5,0.6-2.8,1.6-3.7,2.9c-0.9,1.3-1.5,2.6-1.7,3.9c-0.2,1.3-0.1,2.4,0.4,3.3
	c0.5,1,1.3,1.4,2.5,1.4c0.9,0,1.6-0.2,2.3-0.7c0.6-0.5,1.2-1,1.6-1.7c0.5-0.7,0.9-1.4,1.3-2.3L294.1,32.5z"/>
<path id="XMLID_23_" class="st0" d="M316.8,25.1c0,0.9,0.5,1.6,1.4,2.3c0.9,0.6,2.1,1.3,3.5,1.9c1.4,0.6,2.9,1.2,4.6,1.8
	c1.6,0.6,3.2,1.4,4.6,2.3c1.4,0.9,2.6,2,3.5,3.2c0.9,1.2,1.4,2.8,1.4,4.5c0,1.3-0.2,2.6-0.7,3.7c-0.5,1.2-1.3,2.2-2.3,3
	c-1.1,0.9-2.5,1.5-4.3,2.1c-1.8,0.5-4,0.8-6.6,0.8c-2.3,0-4.2-0.2-5.8-0.7c-1.6-0.5-2.9-1.1-3.8-1.8c-1-0.7-1.6-1.5-2.1-2.4
	c-0.4-0.9-0.6-1.7-0.6-2.4c0-0.7,0.2-1.3,0.6-1.8c0.4-0.5,0.9-0.7,1.6-0.7c1.2,0,2.2,0.3,2.7,0.9c0.6,0.6,1.1,1.3,1.7,2.1
	c0.5,0.7,1.2,1.4,1.9,2.1c0.7,0.6,1.8,0.9,3.3,0.9c1.8,0,3.2-0.3,4.1-0.8c0.9-0.5,1.4-1.1,1.4-1.6c0-0.7-0.4-1.3-1.3-1.8
	c-0.9-0.5-2-1-3.3-1.5c-1.3-0.5-2.7-1.1-4.2-1.7c-1.5-0.6-2.9-1.5-4.2-2.4c-1.3-1-2.4-2.2-3.3-3.7c-0.9-1.5-1.3-3.3-1.3-5.4
	c0-1.5,0.3-2.8,1-4c0.7-1.2,1.6-2.2,2.7-3c1.2-0.8,2.5-1.4,4.1-1.9c1.6-0.4,3.3-0.6,5.2-0.6c3,0,5.4,0.5,7.1,1.5
	c1.7,1,2.8,2.1,3.4,3.2c0.6,1.2,0.7,2.2,0.4,3.2c-0.3,1-1,1.5-2,1.5c-1.3,0-2.2-0.3-2.8-0.8c-0.6-0.6-1.1-1.2-1.7-1.8
	c-0.5-0.7-1.2-1.3-1.9-1.8c-0.8-0.6-2-0.8-3.7-0.8c-1.7,0-2.8,0.3-3.4,0.9C317.1,24,316.8,24.6,316.8,25.1z"/>
<path id="XMLID_25_" class="st0" d="M369.2,41.5c-0.9,1.7-2,3.2-3.5,4.5c-1.2,1.1-2.9,2.1-4.9,3.1c-2,1-4.5,1.4-7.6,1.4
	c-3.6,0-6.5-0.8-8.9-2.3c-2.4-1.6-4.2-3.5-5.4-5.9c-1.2-2.4-1.8-4.9-1.8-7.7c0-2.8,0.6-5.3,1.9-7.7c1.3-2.4,3.2-4.3,5.8-5.9
	c2.6-1.6,5.9-2.3,9.9-2.3c1.9,0,3.6,0.2,5.2,0.6c1.6,0.4,3,0.9,4.1,1.6c1.2,0.7,2,1.5,2.7,2.5c0.6,1,0.9,2.1,0.9,3.3
	c0,0.9-0.3,1.7-0.9,2.5s-1.4,1.2-2.4,1.2c-1,0-1.8-0.2-2.3-0.6c-0.6-0.4-1-0.9-1.3-1.4c-0.3-0.6-0.6-1.2-0.8-1.9
	c-0.2-0.7-0.5-1.3-0.8-1.9c-0.3-0.6-0.7-1.1-1.1-1.4c-0.5-0.4-1.1-0.6-2-0.6c-1.5,0-2.8,0.5-3.8,1.5c-1.1,1-1.9,2.3-2.5,3.9
	c-0.6,1.6-0.9,3.3-1,5.1c-0.1,1.8,0.2,3.5,0.7,5.1c0.5,1.6,1.4,2.9,2.5,3.9c1.2,1,2.7,1.5,4.5,1.5c1.7,0,3.3-0.2,4.7-0.5
	c1.4-0.4,2.6-0.8,3.6-1.2c1.1-0.5,2.1-1.1,3-1.7L369.2,41.5z"/>
<path id="XMLID_27_" class="st0" d="M386.4,18.5c2.6,0,4.9,0.4,6.9,1.3c2,0.8,3.7,2,5.1,3.5c1.4,1.5,2.4,3.2,3.1,5.1
	c0.7,1.9,1.1,4,1.1,6.2c0,2.2-0.3,4.3-1,6.2c-0.7,1.9-1.7,3.6-3.1,5.1c-1.4,1.5-3.1,2.6-5.1,3.5c-2,0.8-4.4,1.3-7.1,1.3
	c-2.5,0-4.8-0.4-6.8-1.3c-2-0.8-3.7-2-5.1-3.5c-1.4-1.5-2.4-3.2-3.2-5.1c-0.7-1.9-1.1-4-1.1-6.2c0-2.2,0.4-4.3,1.1-6.2
	c0.7-1.9,1.8-3.6,3.1-5.1c1.4-1.5,3-2.6,5-3.5C381.5,18.9,383.8,18.5,386.4,18.5z M386.7,46.9c1-0.1,1.8-0.5,2.6-1.2
	c0.8-0.7,1.4-1.6,2-2.8c0.6-1.2,1-2.5,1.3-4c0.3-1.5,0.4-3.1,0.4-4.8c0-1-0.1-2.2-0.4-3.5c-0.2-1.3-0.6-2.6-1.1-3.9
	c-0.5-1.2-1.2-2.3-2.1-3.1c-0.9-0.9-2-1.3-3.3-1.3c-0.9,0-1.8,0.4-2.6,1c-0.8,0.6-1.6,1.5-2.2,2.6c-0.6,1.1-1.1,2.3-1.4,3.8
	s-0.5,3-0.4,4.7c0,1,0.1,2.2,0.4,3.6c0.3,1.4,0.7,2.8,1.2,4.1c0.6,1.3,1.3,2.4,2.2,3.4S385.4,46.9,386.7,46.9z"/>
<polygon id="XMLID_1_" class="st1" points="115.4,60.2 402.6,60.2 402.6,57.3 117.7,57.3 "/>
<rect id="XMLID_30_" x="16.3" y="57.3" class="st2" width="79.8" height="2.9"/>
</svg>
